<svg id="Calque_1" data-name="Calque 1" xmlns="http://www.w3.org/2000/svg" viewBox="0 0 1680 300"><defs><style>.cls-1{fill:#2e3342;}.cls-2{fill:#66f;}</style></defs><title>full-color-secondary_dark</title><path class="cls-1" d="M1296,121.73a75.36,75.36,0,0,0-63.39-9.14,80.07,80.07,0,0,0-19.78,9.21,75.75,75.75,0,0,0-11.22,9.49,70.48,70.48,0,0,0-11.56-9.55,75.35,75.35,0,0,0-63.4-9.15,80.64,80.64,0,0,0-9,3.38v-6.65h-44.21V280.44h44.21V184.36a29.33,29.33,0,0,1,2.39-11.78,31.93,31.93,0,0,1,6.7-9.88,31.22,31.22,0,0,1,10-6.69,30.35,30.35,0,0,1,12-2.41,29.35,29.35,0,0,1,11.77,2.39A31.72,31.72,0,0,1,1177,172.58a29.37,29.37,0,0,1,2.4,11.78v96.08h44.21V184.36a29.33,29.33,0,0,1,2.39-11.78,31.93,31.93,0,0,1,6.7-9.88,31.33,31.33,0,0,1,10-6.69,30.35,30.35,0,0,1,12-2.41,29.35,29.35,0,0,1,11.77,2.39,31.62,31.62,0,0,1,16.56,16.59,29.37,29.37,0,0,1,2.4,11.78v96.08h44.21V184.36a73.63,73.63,0,0,0-9.15-36.08A75,75,0,0,0,1296,121.73Z"/><path class="cls-1" d="M1673.29,161.58h0a86.4,86.4,0,0,0-45.83-46.17,87.14,87.14,0,0,0-67.28,0,87.09,87.09,0,0,0,0,160.11,87.08,87.08,0,0,0,67.28,0,86.54,86.54,0,0,0,27.4-18.57,87.47,87.47,0,0,0,18.43-27.6,88.94,88.94,0,0,0,0-67.78ZM1594,237.14a40.31,40.31,0,0,1-16-3.23,41.31,41.31,0,0,1-13.2-8.92,43.84,43.84,0,0,1-9-13.44,40.8,40.8,0,0,1,0-32.15,44.08,44.08,0,0,1,9-13.44A41.6,41.6,0,0,1,1578,157a41.21,41.21,0,0,1,31.94,0,41.44,41.44,0,0,1,13.2,8.93,42,42,0,0,1,8.84,13.35,42.43,42.43,0,0,1,0,32.33h0a41.81,41.81,0,0,1-8.84,13.35,41.09,41.09,0,0,1-13.2,8.92A40.27,40.27,0,0,1,1594,237.14Z"/><path class="cls-1" d="M157.88,55a28.35,28.35,0,0,0,0,56.69,65.81,65.81,0,0,1,0,131.62H50.14a28.35,28.35,0,0,0,0,56.69H157.88C225.22,300,280,245.05,280,177.5S225.22,55,157.88,55Z"/><path class="cls-2" d="M107.51,83.63A28.33,28.33,0,0,0,79.25,55.29h-51a28.35,28.35,0,0,0,0,56.69h51A28.34,28.34,0,0,0,107.51,83.63Z"/><path class="cls-2" d="M185.47,177.75a28.35,28.35,0,0,0-28.26-28.37h-51a28.37,28.37,0,0,0,0,56.74h51A28.34,28.34,0,0,0,185.47,177.75Z"/><polygon class="cls-1" points="1378.8 109.32 1330.03 109.32 1398.97 280.44 1445.73 280.44 1411.44 190.27 1378.8 109.32"/><path class="cls-2" d="M1490.93,111h0a22.26,22.26,0,0,0-28.93,12.4l-20.45,50.69a22.27,22.27,0,1,0,41.33,16.58L1503.32,140A22.33,22.33,0,0,0,1490.93,111Z"/><path class="cls-1" d="M1027,134.61h0a89.3,89.3,0,0,0-27.41-18.44,85.61,85.61,0,0,0-67.11,0,86.14,86.14,0,0,0-45.73,46A85.62,85.62,0,0,0,879.9,196a84.11,84.11,0,0,0,6.83,33.65,86.61,86.61,0,0,0,45.79,45.86,84,84,0,0,0,33.61,6.84,86.49,86.49,0,0,0,20.4-2.4l2.4-.58V231.09l-4.56,2.31c-.69.36-1.39.7-2.1,1a40.87,40.87,0,0,1-32.27,0A42.71,42.71,0,0,1,927.74,212a39.61,39.61,0,0,1-3.3-16,40.35,40.35,0,0,1,3.3-16.3,43.85,43.85,0,0,1,9-13.37A43.11,43.11,0,0,1,950,157.24a41,41,0,0,1,32.27,0,43.35,43.35,0,0,1,13.25,9.07,43.85,43.85,0,0,1,9,13.37,40.07,40.07,0,0,1,3.27,15l0,85.72h44.54V196A86.42,86.42,0,0,0,1027,134.61Z"/><path class="cls-1" d="M560,280.44V0H515.76V120a88.1,88.1,0,0,0-13-5.91,82.43,82.43,0,0,0-28.1-4.77,83.88,83.88,0,0,0-33.42,6.73,86.14,86.14,0,0,0-27.2,18.5,87.15,87.15,0,0,0-18.31,27.5A86.71,86.71,0,0,0,441.28,275.6a84,84,0,0,0,33.42,6.73,86.21,86.21,0,0,0,19.75-2.27l2.43-.57V231.18l-4.64,2.24c-.51.24-1,.49-1.54.71a40.79,40.79,0,0,1-31.72,0,40.92,40.92,0,0,1-13.11-8.9,43.65,43.65,0,0,1-9-13.39,40.85,40.85,0,0,1,0-32,43.88,43.88,0,0,1,9-13.38,41.23,41.23,0,0,1,13.12-8.9,40.79,40.79,0,0,1,31.72,0,41.26,41.26,0,0,1,13.12,8.89,42.37,42.37,0,0,1,8.79,13.19,39.92,39.92,0,0,1,3.1,13.81l0,78.79h0v8.24Z"/><path class="cls-1" d="M683,104.8c-19.71,0-31.79,1.56-40.4,5.2a90.73,90.73,0,0,0-16.55,9.1v-9.78H581.76V280.44h44.29V195.11c0-12,4.25-22.32,12.92-31.43l.34-.34c8.64-8.65,15.74-12.6,46.85-12.6V104.8Z"/><path class="cls-1" d="M858.26,173.48a83.16,83.16,0,0,0-15.62-30.78,85.45,85.45,0,0,0-29.25-24.34,82.79,82.79,0,0,0-38.16-9,84.62,84.62,0,0,0-33.55,6.73,86.76,86.76,0,0,0,0,159.55,84.37,84.37,0,0,0,33.55,6.73,82.73,82.73,0,0,0,38.16-9,86.89,86.89,0,0,0,29.29-24.08c2.13-2.79,4.13-5.67,5.94-8.57A59.31,59.31,0,0,0,853.5,231H800.67a44.84,44.84,0,0,1-7.87,4.67,41.55,41.55,0,0,1-17.57,3.76,42.7,42.7,0,0,1-14.79-2.56,43.94,43.94,0,0,1-12.68-7.19,42.94,42.94,0,0,1-9.54-11,43.4,43.4,0,0,1-3.4-6.78H859.33l.86-4.65a62.63,62.63,0,0,0,1-11.45A83.32,83.32,0,0,0,858.26,173.48ZM740.91,169a44.36,44.36,0,0,1,10.8-10,41.94,41.94,0,0,1,23.52-6.8,42.57,42.57,0,0,1,19.1,4.41,44.67,44.67,0,0,1,15,12.12l.18.26Z"/></svg>