<svg id="Calque_1" data-name="Calque 1" xmlns="http://www.w3.org/2000/svg" viewBox="0 0 280 245"><defs><style>.cls-1{fill:#2e3342;}.cls-2{fill:#66f;}</style></defs><title>symbol-color-secondary_dark</title><path class="cls-1" d="M157.88,0a28.35,28.35,0,0,0,0,56.69,65.81,65.81,0,0,1,0,131.62H50.14a28.35,28.35,0,0,0,0,56.69H157.88C225.22,245,280,190.05,280,122.5S225.22,0,157.88,0Z"/><path class="cls-2" d="M107.51,28.63A28.33,28.33,0,0,0,79.25.29h-51a28.35,28.35,0,0,0,0,56.69h51A28.34,28.34,0,0,0,107.51,28.63Z"/><path class="cls-2" d="M185.47,122.75a28.35,28.35,0,0,0-28.26-28.37h-51a28.37,28.37,0,0,0,0,56.74h51A28.34,28.34,0,0,0,185.47,122.75Z"/></svg>